<svg viewBox="0 0 1200 630" xmlns="http://www.w3.org/2000/svg" font-family="Arial, sans-serif">
  <rect width="100%" height="100%" fill="#023047"/>
  <text x="600" y="100" font-size="55" font-weight="bold" fill="#8ECAE6" text-anchor="middle">
    5 Questions Your ERP Vendor Won't Like
  </text>
  <text x="600" y="155" font-size="28" fill="#219EBC" text-anchor="middle">
    Tough Questions Buyers Should Ask ERP Vendors During Demos & Procurement
  </text>
  <line x1="0" y1="0" x2="200" y2="630" stroke="#219EBC" stroke-width="2" opacity="0.1"/>
  <line x1="1200" y1="0" x2="1000" y2="630" stroke="#219EBC" stroke-width="2" opacity="0.1"/>
  <rect x="0" y="0" width="1200" height="630" fill="none" stroke="#8ECAE6" stroke-width="5" opacity="0.2"/>
  <g transform="translate(600, 250)">
    <g transform="translate(0, 0)">
      <circle cx="-180" cy="0" r="25" fill="#FFB703"/>
      <text x="-180" y="8" font-size="28" font-weight="bold" fill="#023047" text-anchor="middle">1</text>
      <text x="-100" y="10" font-size="60" font-weight="bold" fill="#219EBC" text-anchor="start">?</text>
      <rect x="-50" y="-10" width="300" height="5" fill="#8ECAE6" rx="2"/>
      <rect x="-50" y="10" width="250" height="5" fill="#8ECAE6" rx="2"/>
    </g>
    <g transform="translate(0, 70)">
      <circle cx="-180" cy="0" r="25" fill="#FB8500"/>
      <text x="-180" y="8" font-size="28" font-weight="bold" fill="#023047" text-anchor="middle">2</text>
      <text x="-100" y="10" font-size="60" font-weight="bold" fill="#219EBC" text-anchor="start">?</text>
      <rect x="-50" y="-10" width="300" height="5" fill="#8ECAE6" rx="2"/>
      <rect x="-50" y="10" width="250" height="5" fill="#8ECAE6" rx="2"/>
    </g>
    <g transform="translate(0, 140)">
      <circle cx="-180" cy="0" r="25" fill="#FFB703"/>
      <text x="-180" y="8" font-size="28" font-weight="bold" fill="#023047" text-anchor="middle">3</text>
      <text x="-100" y="10" font-size="60" font-weight="bold" fill="#219EBC" text-anchor="start">?</text>
      <rect x="-50" y="-10" width="300" height="5" fill="#8ECAE6" rx="2"/>
      <rect x="-50" y="10" width="250" height="5" fill="#8ECAE6" rx="2"/>
    </g>
    <g transform="translate(0, 210)">
      <circle cx="-180" cy="0" r="25" fill="#FB8500"/>
      <text x="-180" y="8" font-size="28" font-weight="bold" fill="#023047" text-anchor="middle">4</text>
      <text x="-100" y="10" font-size="60" font-weight="bold" fill="#219EBC" text-anchor="start">?</text>
      <rect x="-50" y="-10" width="300" height="5" fill="#8ECAE6" rx="2"/>
      <rect x="-50" y="10" width="250" height="5" fill="#8ECAE6" rx="2"/>
    </g>
    <g transform="translate(0, 280)">
      <circle cx="-180" cy="0" r="25" fill="#FFB703"/>
      <text x="-180" y="8" font-size="28" font-weight="bold" fill="#023047" text-anchor="middle">5</text>
      <text x="-100" y="10" font-size="60" font-weight="bold" fill="#219EBC" text-anchor="start">?</text>
      <rect x="-50" y="-10" width="300" height="5" fill="#8ECAE6" rx="2"/>
      <rect x="-50" y="10" width="250" height="5" fill="#8ECAE6" rx="2"/>
    </g>
  </g>
</svg>