<svg width="1200" height="630" viewBox="0 0 1200 630" fill="none" xmlns="http://www.w3.org/2000/svg">
  <rect width="1200" height="630" fill="#023047"/>
  <g opacity="0.05" stroke-width="2" stroke-linecap="round">
    <path d="M0 100 C200 50, 400 150, 600 100 S1000 50, 1200 100" stroke="#8ECAE6" fill="none"/>
    <path d="M0 250 C200 200, 400 300, 600 250 S1000 200, 1200 250" stroke="#219EBC" fill="none"/>
    <path d="M0 400 C200 350, 400 450, 600 400 S1000 350, 1200 400" stroke="#FFB703" fill="none"/>
    <path d="M0 550 C200 500, 400 600, 600 550 S1000 500, 1200 550" stroke="#FB8500" fill="none"/>
  </g>
  <defs>
    <marker id="arrowhead" markerWidth="10" markerHeight="7" refX="0" refY="3.5" orient="auto">
      <polygon points="0 0, 10 3.5, 0 7" fill="#8ECAE6"/>
    </marker>
  </defs>
  <g transform="translate(0, 50)">
    <g transform="translate(150, 0)">
      <circle cx="150" cy="150" r="80" fill="#219EBC"/>
      <circle cx="150" cy="150" r="30" fill="#023047"/>
      <g fill="#8ECAE6">
        <rect x="140" y="60" width="20" height="20" rx="5"/>
        <rect x="140" y="60" width="20" height="20" rx="5" transform="rotate(45 150 150)"/>
        <rect x="140" y="60" width="20" height="20" rx="5" transform="rotate(90 150 150)"/>
        <rect x="140" y="60" width="20" height="20" rx="5" transform="rotate(135 150 150)"/>
        <rect x="140" y="60" width="20" height="20" rx="5" transform="rotate(180 150 150)"/>
        <rect x="140" y="60" width="20" height="20" rx="5" transform="rotate(225 150 150)"/>
        <rect x="140" y="60" width="20" height="20" rx="5" transform="rotate(270 150 150)"/>
        <rect x="140" y="60" width="20" height="20" rx="5" transform="rotate(315 150 150)"/>
      </g>
      <rect x="100" y="280" width="100" height="150" rx="10" fill="#219EBC" opacity="0.3"/>
      <rect x="100" y="280" width="100" height="150" rx="10" stroke="#219EBC" stroke-width="3"/>
      <circle cx="125" cy="310" r="10" fill="#8ECAE6"/>
      <circle cx="175" cy="340" r="10" fill="#8ECAE6"/>
      <circle cx="135" cy="370" r="10" fill="#8ECAE6"/>
      <circle cx="165" cy="400" r="10" fill="#8ECAE6"/>
    </g>
    <g transform="translate(450, 0)">
      <rect x="110" y="110" width="80" height="60" rx="10" fill="#FFB703"/>
      <path d="M110 110 L100 100 L190 100 L200 110 L200 170 L190 180 L110 180 L100 170 Z" fill="#FFB703" opacity="0.8"/>
      <rect x="120" y="120" width="60" height="40" fill="#FB8500" opacity="0.5"/>
      <circle cx="130" cy="190" r="15" fill="#FB8500"/>
      <circle cx="170" cy="190" r="15" fill="#FB8500"/>
      <rect x="180" y="90" width="20" height="30" rx="5" fill="#FB8500"/>
      <rect x="100" y="280" width="100" height="150" rx="10" fill="#FFB703" opacity="0.3"/>
      <rect x="100" y="280" width="100" height="150" rx="10" stroke="#FFB703" stroke-width="3"/>
      <rect x="120" y="300" width="60" height="20" fill="#FB8500"/>
      <rect x="120" y="330" width="60" height="20" fill="#FB8500"/>
      <rect x="120" y="360" width="60" height="20" fill="#FB8500"/>
      <rect x="120" y="390" width="60" height="20" fill="#FB8500"/>
    </g>
    <g transform="translate(750, 0)">
      <rect x="100" y="100" width="100" height="100" fill="#FB8500"/>
      <path d="M100 100 L120 80 L220 80 L200 100 Z" fill="#FB8500" opacity="0.8"/>
      <path d="M200 100 L220 80 L220 180 L200 200 Z" fill="#FB8500" opacity="0.8"/>
      <rect x="110" y="110" width="80" height="80" fill="#FFB703" opacity="0.5"/>
      <rect x="100" y="280" width="100" height="150" rx="10" fill="#FB8500" opacity="0.3"/>
      <rect x="100" y="280" width="100" height="150" rx="10" stroke="#FB8500" stroke-width="3"/>
      <path d="M120 300 L180 300 L180 310 L120 310 Z" fill="#FFB703"/>
      <path d="M120 330 L180 330 L180 340 L120 340 Z" fill="#FFB703"/>
      <path d="M120 360 L180 360 L180 370 L120 370 Z" fill="#FFB703"/>
      <path d="M120 390 L180 390 L180 400 L120 400 Z" fill="#FFB703"/>
    </g>
    <g stroke="#8ECAE6" stroke-width="5" stroke-dasharray="20 10" stroke-linecap="round">
      <line x1="380" y1="150" x2="420" y2="150"/>
      <line x1="380" y1="180" x2="420" y2="180"/>
      <line x1="380" y1="350" x2="420" y2="350"/>
      <line x1="680" y1="150" x2="720" y2="150"/>
      <line x1="680" y1="180" x2="720" y2="180"/>
      <line x1="680" y1="350" x2="720" y2="350"/>
    </g>
    <g stroke="#8ECAE6" stroke-width="3" fill="none" stroke-linecap="round" stroke-linejoin="round">
      <path d="M200 300 C220 320, 220 380, 200 400" marker-end="url(#arrowhead)" opacity="0.6"/>
      <path d="M100 300 C80 320, 80 380, 100 400" marker-end="url(#arrowhead)" opacity="0.6"/>
      <path d="M500 300 C520 320, 520 380, 500 400" marker-end="url(#arrowhead)" opacity="0.6"/>
      <path d="M400 300 C380 320, 380 380, 400 400" marker-end="url(#arrowhead)" opacity="0.6"/>
      <path d="M800 300 C820 320, 820 380, 800 400" marker-end="url(#arrowhead)" opacity="0.6"/>
      <path d="M700 300 C680 320, 680 380, 700 400" marker-end="url(#arrowhead)" opacity="0.6"/>
    </g>
  </g>
  <g transform="translate(600, 50)" text-anchor="middle" fill="#8ECAE6" font-family="Arial, sans-serif" font-size="40" opacity="0.1">
    <text x="0" y="0" transform="rotate(-15)">DISCONNECTED</text>
    <text x="0" y="50" transform="rotate(10)">DATA SILOS</text>
  </g>
</svg>